<svg width="97" height="69" viewBox="0 0 97 69" fill="none" xmlns="http://www.w3.org/2000/svg">
<path d="M20.8459 22.1563L12.7188 17.5431C12.7188 17.5431 11.2173 16.5616 10.3354 15.8329C8.00573 13.9289 6.91535 11.4195 8.54794 7.99332C9.91835 5.1666 12.1766 3.29192 14.5063 1.2468C14.7982 0.982351 15.2749 0.371168 14.7029 0.0714529C14.513 -1.4401e-05 14.3068 -0.0183189 14.1071 0.0185621C11.6107 0.194341 9.1953 0.966758 7.0693 2.26912C4.94331 3.57148 3.17066 5.36465 1.9044 7.4938C0.25444 10.3771 -0.348801 13.7293 0.194353 16.9965C0.968937 21.4041 4.1626 24.4953 7.86273 26.846C11.9189 29.35 16.2817 31.3346 20.8459 32.7521L25.8092 25.0007L20.8459 22.1563Z" fill="#E5CFB5"/>
<path d="M94.5683 7.49392C93.3041 5.36977 91.5358 3.58022 89.4154 2.27913C87.295 0.978041 84.886 0.204344 82.3954 0.0245607C82.1956 -0.0123203 81.9894 0.00598421 81.7996 0.0774515C81.2037 0.353659 81.7042 0.964842 81.9962 1.2528C84.3021 3.30967 86.5603 5.1726 87.9545 7.99932C89.6109 11.4255 88.5146 13.9348 86.167 15.8389C85.2733 16.5676 83.7837 17.5491 83.7837 17.5491L75.6625 22.1564L70.6575 25.0008L75.6625 32.7522C80.215 31.3417 84.5676 29.367 88.6159 26.8755C92.316 24.5248 95.5097 21.4336 96.2843 17.026C96.8326 13.7486 96.227 10.3848 94.5683 7.49392Z" fill="#E5CFB5"/>
<path d="M75.6567 22.1563V53.3854L57.299 63.8402L48.2364 69L39.1738 63.8402L20.8162 53.3854V22.1563L48.2364 6.54177L75.6567 22.1563Z" fill="#EA6B44"/>
<path d="M48.2364 6.54177L20.8162 22.1563V53.3854L39.1738 63.8402L48.2364 69L57.299 63.8402L75.6567 53.3854V22.1563L48.2364 6.54177Z" fill="#F39555"/>
<path d="M20.8162 22.1563V53.3854L39.1738 63.8402L48.2364 69V6.54177L20.8162 22.1563Z" fill="#EA6B44"/>
<path d="M48.2365 6.54177V69L57.2991 63.8402L75.6567 53.3854V22.1563L48.2365 6.54177Z" fill="#F39555"/>
<path d="M48.2364 22.1563L34.5263 29.9606L48.2364 37.7709L61.9406 29.9606L48.2364 22.1563Z" fill="#AB1F14"/>
<path d="M48.2365 6.5418L56.3339 1.92854L83.7601 17.5431L75.6567 22.1563L48.2365 6.5418Z" fill="#F18A56"/>
<path d="M48.2364 6.5418L40.133 1.92854L12.7128 17.5431L20.8161 22.1563L48.2364 6.5418Z" fill="#DF7654"/>
<path d="M48.2365 58.9683V69L39.1739 63.8402V53.8085L48.2365 58.9683Z" fill="#CC4431"/>
<path d="M57.2991 53.8085V63.8402L48.2365 69V58.9683L57.2991 53.8085Z" fill="#D86239"/>
<path d="M67.321 36.8541V42.6427C64.4532 43.4385 61.9251 45.1318 60.1174 47.4675C60.1174 47.4675 59.6765 41.3674 63.2157 38.382C64.3321 37.3678 65.8037 36.8201 67.321 36.8541Z" fill="#882406"/>
<path d="M29.0863 36.8541V42.6427C31.9542 43.4386 34.4823 45.1318 36.2899 47.4676C36.2899 47.4676 36.7249 41.3675 33.1856 38.3821C32.0711 37.3688 30.6017 36.8211 29.0863 36.8541Z" fill="#882406"/>
<path d="M20.8162 22.1563L34.5263 29.9606L48.2364 22.1563V6.54177L20.8162 22.1563Z" fill="#D54F2F"/>
<path d="M75.6567 22.1563L61.9406 29.9606L48.2365 22.1563V6.54177L75.6567 22.1563Z" fill="#C13C22"/>
</svg>
